<svg xmlns="http://www.w3.org/2000/svg" width="64" height="64" viewBox="0 0 48 48" role="img" aria-label="DaySpring" class="shrink-0"><defs><linearGradient id="ds-g" x1="0" y1="0" x2="1" y2="1"><stop offset="0" stop-color="#d946ef"></stop><stop offset="0.55" stop-color="#6366f1"></stop><stop offset="1" stop-color="#06b6d4"></stop></linearGradient><linearGradient id="ds-sun" x1="0" y1="0" x2="0" y2="1"><stop offset="0" stop-color="#fb7185"></stop><stop offset="1" stop-color="#f59e0b"></stop></linearGradient><clipPath id="ds-clip"><circle cx="24" cy="24" r="20"></circle></clipPath></defs><circle cx="24" cy="24" r="21" fill="none" stroke="url(#ds-g)" stroke-width="2.5" opacity="0.9"></circle><circle cx="24" cy="24" r="20" fill="white" opacity="0.85"></circle><g clip-path="url(#ds-clip)"><circle cx="24" cy="18" r="7.5" fill="url(#ds-sun)" opacity="0.95"></circle><line x1="29.071419140888395" y1="7.124306555560201" x2="31.18451044959189" y2="2.592767620376952" stroke="url(#ds-sun)" stroke-width="2.2" stroke-linecap="round" opacity="0.9"></line><line x1="31.87270834788609" y1="8.943485037326736" x2="35.15300349283862" y2="5.1699371362128765" stroke="url(#ds-sun)" stroke-width="2.2" stroke-linecap="round" opacity="0.9"></line><line x1="34.06404681534509" y1="11.464331579819675" x2="38.257399655072206" y2="8.74113640474454" stroke="url(#ds-sun)" stroke-width="2.2" stroke-linecap="round" opacity="0.9"></line><line x1="35.47565707155643" y1="14.491539543327159" x2="40.2571808513716" y2="13.029681019713475" stroke="url(#ds-sun)" stroke-width="2.2" stroke-linecap="round" opacity="0.9"></line><line x1="35.998172341876696" y1="17.7905711227526" x2="40.99741081765865" y2="17.70330909056618" stroke="url(#ds-sun)" stroke-width="2.2" stroke-linecap="round" opacity="0.9"></line><line x1="35.59110991546882" y1="21.10582854123025" x2="40.420739046914164" y2="22.39992376674285" stroke="url(#ds-sun)" stroke-width="2.2" stroke-linecap="round" opacity="0.9"></line><line x1="34.28600760842535" y1="24.18045689892065" x2="38.57184411193591" y2="26.75564727347092" stroke="url(#ds-sun)" stroke-width="2.2" stroke-linecap="round" opacity="0.9"></line><line x1="32.18398032074998" y1="26.776244419430046" x2="35.59397212106248" y2="30.433012927525898" stroke="url(#ds-sun)" stroke-width="2.2" stroke-linecap="round" opacity="0.9"></line><line x1="29.44788599687456" y1="28.69207829026041" x2="31.717838495572295" y2="33.147110911202255" stroke="url(#ds-sun)" stroke-width="2.2" stroke-linecap="round" opacity="0.9"></line><path d="M4 26h40" stroke="rgba(15,23,42,0.08)" stroke-width="2"></path><path d="M0 34c6 0 7-4 13-4s7 4 12 4 7-4 12-4 7 4 11 4v14H0V34z" fill="url(#ds-g)" opacity="0.9"></path><path d="M0 37c6 0 7-3 13-3s7 3 12 3 7-3 12-3 7 3 11 3" fill="none" stroke="rgba(255,255,255,0.55)" stroke-width="2" stroke-linecap="round"></path></g></svg>